<?xml version="1.0" encoding="utf-8"?>
<!-- Generator: Adobe Illustrator 19.0.0, SVG Export Plug-In . SVG Version: 6.00 Build 0)  -->
<svg version="1.1" id="Layer_1" xmlns="http://www.w3.org/2000/svg" xmlns:xlink="http://www.w3.org/1999/xlink" x="0px" y="0px"
	 viewBox="-1063 1065 32 32" style="enable-background:new -1063 1065 32 32;" xml:space="preserve">
<style type="text/css">
	.st0{fill:#5596E6;}
	.st1{fill:#FFFFFF;}
</style>
<path class="st0" d="M-1063,1081.2c0-8.6,7.1-15.6,15.9-15.6c8.8,0,15.9,7,15.9,15.6c0,8.6-7.1,15.6-15.9,15.6
	C-1055.9,1096.8-1063,1089.8-1063,1081.2"/>
<path class="st1" d="M-1037.6,1075.6L-1037.6,1075.6l-1.8-3.6c-0.1-0.2-0.4-0.2-0.4,0l-1.8,3.6c0,0.1,0,0.2,0,0.2
	c0,0.1,0.1,0.1,0.2,0.1h1.6v1.4c0,0.7-0.4,1.1-1.1,1.1h-5.8v-2.5h1.6c0.1,0,0.2-0.1,0.2-0.2v-3.6c0-0.1-0.1-0.2-0.2-0.2h-3.6
	c-0.1,0-0.3,0.1-0.3,0.2v3.6c0,0.1,0.1,0.2,0.3,0.2h1.6v2.5h-5.8c-0.7,0-1.1-0.4-1.1-1.1v-1.5c1-0.1,1.8-1,1.8-2c0-1.1-0.9-2-2.1-2
	c-1.1,0-2.1,0.9-2.1,2c0,1,0.8,1.9,1.8,2v1.5c0,1,0.6,1.6,1.6,1.6h5.8v2c-1.1,0.1-1.9,1-1.9,2.1c0,0.7,0.3,1.3,0.8,1.7
	c-1.4,0.5-2.2,1.8-2.2,3.3v2.2h0.5v-2.2c0-1.4,1-2.7,2.4-3c0.1,0,0.2-0.1,0.2-0.2c0-0.1,0-0.2-0.1-0.2c-0.6-0.3-1-0.9-1-1.5
	c0-0.9,0.8-1.6,1.7-1.6c0.9,0,1.7,0.7,1.7,1.6c0,0.6-0.4,1.2-1,1.5c-0.1,0-0.2,0.1-0.1,0.2c0,0.1,0.1,0.2,0.2,0.2
	c1.4,0.3,2.4,1.6,2.4,3v2.2h0.5v-2.2c0-1.5-0.9-2.8-2.2-3.3c0.5-0.4,0.8-1,0.8-1.7c0-1.1-0.8-2-1.9-2.1v-2h5.8c1,0,1.6-0.6,1.6-1.6
	v-1.4h1.6c0.1,0,0.2,0,0.2-0.1C-1037.6,1075.7-1037.6,1075.6-1037.6,1075.6z M-1054.5,1075.4c-0.9,0-1.6-0.7-1.6-1.5h0
	c0-0.8,0.7-1.5,1.6-1.5c0.9,0,1.6,0.7,1.6,1.5C-1053,1074.7-1053.7,1075.4-1054.5,1075.4z M-1048.7,1075.4v-3.1h3.1v3.1H-1048.7z
	 M-1041.1,1075.4l1.4-2.8l1.4,2.8H-1041.1z"/>
</svg>
