<svg id="Layer_1" xmlns="http://www.w3.org/2000/svg" width="1000" height="1000" viewBox="204 -140 1000 1000"><style>.st0{fill:#5596E6;} .st1{fill:#325C80;} .st2{fill:#FFFFFF;} .st3{fill:#264A60;}</style><circle class="st0" cx="704" cy="360" r="500"/><path class="st1" d="M447.3 403.9h112.5v22.3H447.3zM593.348 191.622l51.855 92.453-19.45 10.91-51.855-92.454z"/><path class="st2" d="M546.2 180.3c-36.4 0-66.2-29.7-66.2-66.2S509.7 48 546.2 48s66.2 29.7 66.2 66.2-29.8 66.1-66.2 66.1zm0-110.1c-24.2 0-43.9 19.6-43.9 43.9s19.6 43.9 43.9 43.9 43.9-19.6 43.9-43.9-19.7-43.9-43.9-43.9z"/><g id="Icon_14_"><ellipse class="st3" cx="708.6" cy="421.4" rx="106.1" ry="104.1"/><path class="st3" d="M799.8 556H617.3c-24.6 0-45.3 20.7-45.3 44.7v44.7h273.6v-44.7c0-24-21.2-44.7-45.8-44.7z"/><ellipse class="st3" cx="708.6" cy="421.4" rx="106.1" ry="104.1"/><path class="st3" d="M799.8 556H617.3c-24.6 0-45.3 20.7-45.3 44.7v44.7h273.6v-44.7c0-24-21.2-44.7-45.8-44.7z"/></g><path class="st1" d="M848.9 403.9h112.5v22.3H848.9zM830.475 196.19l18.894 11.844-56.35 89.9-18.895-11.845z"/><path class="st2" d="M931.3 165.5h-148l74-115.9 74 115.9zm-107.4-22.3h66.8l-33.4-52.3-33.4 52.3zM404.6 470.8H291.8V358h112.8v112.8zM314 448.6h68.2v-68.2H314v68.2zM1102.86 354.074l15.815 15.722-107.372 108.01-15.815-15.72z"/><path class="st2" d="M1015.87 353.646l102.95 106.746-16.052 15.48-102.95-106.746z"/></svg>