<?xml version="1.0" encoding="utf-8"?>
<!-- Generator: Adobe Illustrator 19.1.0, SVG Export Plug-In . SVG Version: 6.00 Build 0)  -->
<svg version="1.1" id="Layer_1" xmlns="http://www.w3.org/2000/svg" xmlns:xlink="http://www.w3.org/1999/xlink" x="0px" y="0px"
	 viewBox="0 0 32 32" enable-background="new 0 0 32 32" xml:space="preserve">
<g>
	<polygon points="20.3,9.8 16,14.1 11.7,9.8 9.8,11.7 14.1,16 9.8,20.3 11.7,22.2 16,17.9 20.3,22.2 22.2,20.3 17.9,16 22.2,11.7 	
		"/>
	<path d="M16,1.5C8,1.5,1.5,8,1.5,16S8,30.5,16,30.5S30.5,24,30.5,16S24,1.5,16,1.5z M16,28.5C9.1,28.5,3.5,22.9,3.5,16
		S9.1,3.5,16,3.5S28.5,9.1,28.5,16S22.9,28.5,16,28.5z"/>
</g>
</svg>
